<svg xmlns="http://www.w3.org/2000/svg" viewBox="0 0 187.45 127.96"><defs><style>.cls-1{fill:#d81219;stroke:#d81219;stroke-miterlimit:10;}</style></defs><title>Asset 11</title><g id="Layer_2" data-name="Layer 2"><g id="Layer_1-2" data-name="Layer 1"><path class="cls-1" d="M162.39,12.43s-4-1.33-6-.47-4,1.89-4.76,1.54-2.62-2.74-3.71-2.7-1-.77-1.61-1.37-1.66,0-2.05-.3-4.15-3.95-7.9-3-2.14-.64-2.14-.64-1.22-.94-6.15.43-5.19-1.5-5.28-1.72-.26-1.29-1-1.14-.2-1.39-1.29-1.18S118.62-.27,115.56.76s-2.62,1.37-3.06,2.19a2.29,2.29,0,0,1-2.62,1.42c-1.44-.3-.65,1.07-1.83,1s-.61,1.37-2.4,1.12-7.42-2.14-8.77-.17A4.16,4.16,0,0,0,96,9.73a3.85,3.85,0,0,1-2.92,2.36c-2.14.26-4.32.6-6.07-1.93S85.62,7.6,84,7s-8.34-2.58-10-2-2.44,1.37-3.32,1.07-5.24,3.73-5.32,5.15-2.27,5.88-1.79,6.56-.4,2.74-.07,3.13,1.38,1.2,1.25,1.63a3.68,3.68,0,0,0,1.75,3.09c1.48,1,3.06,4.5,3.06,4.5s-1.31,3.56-1.7,3.65-.57-.21-1.4,1.07a15,15,0,0,1-2.75,2.79s-2.92-1.8-3.4-1.12-.13,2.14,0,2.62.09.6,2.49,1.59a12.72,12.72,0,0,1,2.88,5.92s.09,1.54-.48,1.89.22,1.63-.17,2.1-1.31,2.4-2.49,2.19-1.31-1.93-2.05-2.1-2.62,0-2.88-1.24-10-2.06-11.74-.9-6.85,4.8-7.57,6.88-.46,2.68-1.2,3.67-.48,9,4.89,13.08,13.4,2.92,13.92,2.57,3.58-2.74,4.93-2.92,1.27-2.57,2.57-2.62,1.83,2.23,1.66,2.66-.44,2.32-1.48,3-2.49,1.84-2.31,3.69,1.88,1.46,2.57,2.06,1.13-.86,2.4.81A9.1,9.1,0,0,1,68,88c-.22,2.7-1,3.43,0,4.85s5.37,7.25,6,7.38-.09,3,.65,3.56,1,2.1,1.61,1.84,4.58,5.06,4.71,5.49,2.31,1.07,3.49,1,2.84.34,2.92,1,3.49.3,3.67,1.24c2.09-.34,5.24,4.42,5.28,4.89s-.44,1,.83,1.76,2,1.07,3.36,0,5-1.29,6,.21,2.36,2.49,1.88,4.5c2.4,1.5,6.55-.47,7.86-1.07s6.94-1.42,7.24-.94.17,3.69,2.62,3.69,3.23-.9,3.84-2.06,7.29-2.1,7.68-1.72c0,0,.74,2.7,1.57,2.62,0,0,2,2.4,3.54.3s1-1.59,1.09-3.35.7-2.32,2.27-2.32,2.79-.17,3.67.39,3.14,1.93,4.1-1.5a29,29,0,0,1,1.53-4.55l3.45.56s1,.51,2.09-.69a27.22,27.22,0,0,1,4.1-3s1.7-5.28,4.58-6.39a4.82,4.82,0,0,0,3.49-4.5c.13-1.5,2.18-1.12,2.4-2.53s3.19-2.32,3.8-4.25,3-1.16,1-5.15c0,0,.57-3.73,1.18-4.2a5.24,5.24,0,0,0,1.83-4.59c-.17-2.66,1.7-3.13,2.36-4.67s-.44-.64.52-4.46-1.75-4-2.09-7.16-.33-5.49,2.3-6.82c0,0-.25-.69.36-2.87s-2.44-3.22-4.89-3.39-1.22.09-1.83-1.16-1.22-1.67-.13-5.53,2.53-4.93-2.27-6.13-3.06-4.89-3.23-6-.31-2.44-2.18-3.22-9.25-4.12-10.26-8.71-1-3.35-.37-4S162.39,12.43,162.39,12.43Z"/><path class="cls-1" d="M30.59,34.94l-13.33,4.6s-1,.89-4-.43-2.56-1.63-3.55-1.89-2.12-.69-2.24-1.49c-.47-.63-2-.26-2.21-1.47s-3.75-4.74-3.88-6.91S.17,19.33.6,18s1-1.14,1.35-1.89a9.6,9.6,0,0,0,.57-2.27,3.36,3.36,0,0,1,1.27-3A10.47,10.47,0,0,1,8,8.27c.92-.13,1.95-1.06,1.95-1.86a3.72,3.72,0,0,1,3-.77c2.12.14,1.72-2.4,3.4-2.06s2.91,0,4.25,1.6,4-.26,4.68.06-.35.69.49,1.09,2.62-.4,3.93,1.29,3.17,2.66,2.76,4.32a3.76,3.76,0,0,1,1.16,1.63A8.35,8.35,0,0,0,36,16.84a1.85,1.85,0,0,1,.86,2.26c-.25,1.2-1.85,11.07-2.78,12s-1.37,1.49-1.4,1.89-.79.06-1.16.4S31.28,33.46,30.59,34.94Z"/><path class="cls-1" d="M19,60.56s.41-2.4-1.34-3.46-4.83,1.66-5.3,2.06-2.27,2.09-2,3.8A6.47,6.47,0,0,0,13,66.51c.58.43,3.43,2,4.83-1.8S19,60.56,19,60.56Z"/></g></g></svg>