<svg xmlns="http://www.w3.org/2000/svg" viewBox="0 0 184.57 128.2"><defs><style>.cls-1{fill:#d81219;stroke:#d81219;stroke-miterlimit:10;}</style></defs><title>Asset 10</title><g id="Layer_2" data-name="Layer 2"><g id="Layer_1-2" data-name="Layer 1"><path class="cls-1" d="M146.82,55.61c-.71-2.08-5.74-5.74-7.46-6.9s-11.3-.39-11.56.9-2.11,1.07-2.84,1.25-.86,1.89-2,2.11-2.06-1.72-2.45-2.19.39-1.76-.17-2.11-.47-1.89-.47-1.89a12.85,12.85,0,0,1,2.84-5.93c2.36-1,2.32-1.12,2.45-1.59s.47-1.93,0-2.62-3.35,1.12-3.35,1.12A14.94,14.94,0,0,1,119.09,35c-.82-1.29-1-1-1.37-1.07S116,30.24,116,30.24s1.55-3.52,3-4.51a3.71,3.71,0,0,0,1.72-3.09c-.13-.43.9-1.25,1.23-1.63s-.54-2.45-.07-3.14-1.68-5.16-1.76-6.57-4.38-5.46-5.24-5.16-1.63-.47-3.27-1.07-8.29,1.42-9.84,2-1.2.59-2.92,3.13-3.87,2.19-6,1.93A3.81,3.81,0,0,1,90,9.74a4.23,4.23,0,0,0-.86-3.44c-1.33-2-6.87-.09-8.64.17s-1.2-1.2-2.36-1.12-.39-1.29-1.8-1A2.25,2.25,0,0,1,73.8,3c-.43-.82,0-1.16-3-2.19S67,2.09,65.93,1.88s-.52,1.33-1.27,1.18-.92.92-1,1.14-.34,3.09-5.2,1.72-6.06-.43-6.06-.43,1.59,1.59-2.11.64-7.39,2.71-7.78,3-1.42-.3-2,.3-.52,1.42-1.59,1.37S36,13.18,35.25,13.52,32.5,12.84,30.57,12s-5.89.47-5.89.47,0,3.35.67,4,.62-.62-.37,4-8.25,7.95-10.1,8.72-2,2.06-2.15,3.22,1.55,4.86-3.18,6.06-3.31,2.28-2.23,6.14.47,4.3-.13,5.54.6,1-1.8,1.16S0,52.45.58,54.64s.36,2.88.36,2.88c2.59,1.33,2.61,3.65,2.26,6.83s-3,3.35-2.06,7.18S1,74.45,1.65,76,4.14,78,4,80.68a5.29,5.29,0,0,0,1.8,4.6c.6.47,1.16,4.21,1.16,4.21-1.93,4,.39,3.22,1,5.16s3.52,2.84,3.74,4.25,2.23,1,2.36,2.54a4.83,4.83,0,0,0,3.44,4.51c2.84,1.12,4.51,6.4,4.51,6.4a26.82,26.82,0,0,1,4,3c1.12,1.2,2.06.69,2.06.69l3.39-.56A29.44,29.44,0,0,1,33,120c.95,3.44,3.18,2.06,4,1.5s2.06-.39,3.61-.39,2.15.56,2.23,2.32-.47,1.25,1.07,3.35,3.48-.3,3.48-.3c.82.09,1.55-2.62,1.55-2.62.39-.39,7,.56,7.56,1.72s1.38,2.06,3.78,2.06,2.28-3.22,2.58-3.7,5.84.34,7.13.95,5.37,2.58,7.73,1.07c-.47-2,.86-3,1.85-4.51s4.55-1.29,5.89-.21,2.06.73,3.31,0,.77-1.29.82-1.76,3.14-5.24,5.2-4.9c.17-.95,3.52-.56,3.61-1.25s1.72-1.12,2.88-1,3.31-.56,3.44-1,4.08-5.76,4.64-5.5.86-1.25,1.59-1.85,0-3.44.64-3.57,4.9-6,5.93-7.39.26-2.15,0-4.86a9.23,9.23,0,0,1,1.72-6.49c1.25-1.68,1.68-.21,2.36-.82s2.36-.21,2.54-2.06-1.25-3-2.28-3.7-1.29-2.62-1.46-3.05.34-2.71,1.63-2.66,1.2,2.45,2.54,2.62S129,74.62,129.48,75s8.42,1.5,13.71-2.58,5.54-12.12,4.81-13.11S147.53,57.7,146.82,55.61Z"/><path class="cls-1" d="M184,18c-.43-1.37-1-1.14-1.33-1.89a9.76,9.76,0,0,1-.56-2.28,3.4,3.4,0,0,0-1.25-3,10.27,10.27,0,0,0-4.12-2.58,2.35,2.35,0,0,1-1.92-1.86,3.63,3.63,0,0,0-2.92-.77c-2.09.14-1.69-2.41-3.35-2.06s-2.86,0-4.18,1.6-4-.26-4.61.06.34.69-.49,1.09-2.58-.4-3.87,1.29-3.12,2.66-2.72,4.33a3.76,3.76,0,0,0-1.15,1.63,8.36,8.36,0,0,1-2.35,3.29,1.86,1.86,0,0,0-.85,2.26c.24,1.2,1.82,11.09,2.74,12s1.35,1.49,1.38,1.89.77.06,1.15.4.2.11.89,1.6l13.12,4.61s1,.89,3.92-.43S174,37.56,175,37.3s2.09-.69,2.21-1.49c.46-.63,1.94-.26,2.18-1.47s3.7-4.75,3.82-6.92S184.4,19.37,184,18Z"/><path class="cls-1" d="M172.35,59.27c-.46-.4-3.49-3.12-5.21-2.06s-1.32,3.47-1.32,3.47-.14.32,1.23,4.15,4.18,2.23,4.76,1.8a6.48,6.48,0,0,0,2.49-3.55C174.59,61.36,172.81,59.67,172.35,59.27Z"/></g></g></svg>